<mxfile host="app.diagrams.net" modified="2024-06-14T09:24:52.571Z" agent="Mozilla/5.0 (Windows NT 10.0; Win64; x64) AppleWebKit/537.36 (KHTML, like Gecko) Chrome/125.0.0.0 Safari/537.36" etag="m-pLH3fl4Qm7nJ3cTQw9" version="24.5.4" type="device">
  <diagram name="Page-1" id="b7rvHmm4R5zSuJXPWRFT">
    <mxGraphModel dx="2062" dy="1783" grid="1" gridSize="10" guides="1" tooltips="1" connect="1" arrows="1" fold="1" page="1" pageScale="1" pageWidth="827" pageHeight="1169" math="0" shadow="0">
      <root>
        <mxCell id="0" />
        <mxCell id="1" parent="0" />
        <mxCell id="fgjjbp0e9OJu9rGo0koz-1" value="User" style="rounded=0;whiteSpace=wrap;html=1;spacing=7;" vertex="1" parent="1">
          <mxGeometry x="130" y="495" width="100" height="90" as="geometry" />
        </mxCell>
        <mxCell id="fgjjbp0e9OJu9rGo0koz-3" value="user_id" style="ellipse;whiteSpace=wrap;html=1;spacing=7;" vertex="1" parent="1">
          <mxGeometry x="-60" y="470" width="100" height="70" as="geometry" />
        </mxCell>
        <mxCell id="fgjjbp0e9OJu9rGo0koz-4" value="name" style="ellipse;whiteSpace=wrap;html=1;spacing=7;" vertex="1" parent="1">
          <mxGeometry x="-50" y="380" width="80" height="60" as="geometry" />
        </mxCell>
        <mxCell id="fgjjbp0e9OJu9rGo0koz-9" value="Password" style="ellipse;whiteSpace=wrap;html=1;spacing=7;" vertex="1" parent="1">
          <mxGeometry x="140" y="300" width="90" height="70" as="geometry" />
        </mxCell>
        <mxCell id="fgjjbp0e9OJu9rGo0koz-10" value="email(username)&amp;nbsp;" style="ellipse;whiteSpace=wrap;html=1;spacing=7;" vertex="1" parent="1">
          <mxGeometry x="10" y="310" width="110" height="70" as="geometry" />
        </mxCell>
        <mxCell id="fgjjbp0e9OJu9rGo0koz-11" value="" style="endArrow=none;html=1;rounded=0;entryX=1.042;entryY=0.32;entryDx=0;entryDy=0;exitX=0.972;exitY=0.74;exitDx=0;exitDy=0;exitPerimeter=0;entryPerimeter=0;spacing=7;" edge="1" parent="1" source="fgjjbp0e9OJu9rGo0koz-4" target="fgjjbp0e9OJu9rGo0koz-3">
          <mxGeometry width="50" height="50" relative="1" as="geometry">
            <mxPoint x="390" y="480" as="sourcePoint" />
            <mxPoint x="440" y="430" as="targetPoint" />
            <Array as="points">
              <mxPoint x="180" y="490" />
            </Array>
          </mxGeometry>
        </mxCell>
        <mxCell id="fgjjbp0e9OJu9rGo0koz-12" value="" style="endArrow=none;html=1;rounded=0;entryX=0.5;entryY=1;entryDx=0;entryDy=0;exitX=0.5;exitY=1;exitDx=0;exitDy=0;spacing=7;" edge="1" parent="1" source="fgjjbp0e9OJu9rGo0koz-9" target="fgjjbp0e9OJu9rGo0koz-10">
          <mxGeometry width="50" height="50" relative="1" as="geometry">
            <mxPoint x="190" y="373" as="sourcePoint" />
            <mxPoint x="440" y="430" as="targetPoint" />
            <Array as="points">
              <mxPoint x="180" y="410" />
              <mxPoint x="180" y="490" />
            </Array>
          </mxGeometry>
        </mxCell>
        <mxCell id="fgjjbp0e9OJu9rGo0koz-13" value="About" style="ellipse;whiteSpace=wrap;html=1;spacing=7;" vertex="1" parent="1">
          <mxGeometry x="250" y="320" width="80" height="60" as="geometry" />
        </mxCell>
        <mxCell id="fgjjbp0e9OJu9rGo0koz-14" value="" style="endArrow=none;html=1;rounded=0;entryX=0.5;entryY=0;entryDx=0;entryDy=0;exitX=0.392;exitY=1.02;exitDx=0;exitDy=0;exitPerimeter=0;spacing=7;" edge="1" parent="1" source="fgjjbp0e9OJu9rGo0koz-13" target="fgjjbp0e9OJu9rGo0koz-1">
          <mxGeometry width="50" height="50" relative="1" as="geometry">
            <mxPoint x="245" y="363" as="sourcePoint" />
            <mxPoint x="120" y="370" as="targetPoint" />
            <Array as="points" />
          </mxGeometry>
        </mxCell>
        <mxCell id="fgjjbp0e9OJu9rGo0koz-15" value="Post" style="rounded=0;whiteSpace=wrap;html=1;spacing=7;" vertex="1" parent="1">
          <mxGeometry x="630.5" y="500" width="103" height="85" as="geometry" />
        </mxCell>
        <mxCell id="fgjjbp0e9OJu9rGo0koz-16" value="user_id" style="ellipse;whiteSpace=wrap;html=1;spacing=7;" vertex="1" parent="1">
          <mxGeometry x="440" y="360" width="100" height="70" as="geometry" />
        </mxCell>
        <mxCell id="fgjjbp0e9OJu9rGo0koz-17" value="post_id" style="ellipse;whiteSpace=wrap;html=1;spacing=7;" vertex="1" parent="1">
          <mxGeometry x="470" y="250" width="80" height="60" as="geometry" />
        </mxCell>
        <mxCell id="fgjjbp0e9OJu9rGo0koz-18" value="context" style="ellipse;whiteSpace=wrap;html=1;spacing=7;" vertex="1" parent="1">
          <mxGeometry x="780" y="290" width="90" height="70" as="geometry" />
        </mxCell>
        <mxCell id="fgjjbp0e9OJu9rGo0koz-19" value="titlle" style="ellipse;whiteSpace=wrap;html=1;spacing=7;" vertex="1" parent="1">
          <mxGeometry x="733.5" y="180" width="110" height="70" as="geometry" />
        </mxCell>
        <mxCell id="fgjjbp0e9OJu9rGo0koz-20" value="" style="endArrow=none;html=1;rounded=0;entryX=0.922;entryY=0.789;entryDx=0;entryDy=0;exitX=0.678;exitY=1.027;exitDx=0;exitDy=0;exitPerimeter=0;entryPerimeter=0;spacing=7;" edge="1" parent="1" source="fgjjbp0e9OJu9rGo0koz-17" target="fgjjbp0e9OJu9rGo0koz-16">
          <mxGeometry width="50" height="50" relative="1" as="geometry">
            <mxPoint x="887" y="490" as="sourcePoint" />
            <mxPoint x="937" y="440" as="targetPoint" />
            <Array as="points">
              <mxPoint x="677" y="500" />
            </Array>
          </mxGeometry>
        </mxCell>
        <mxCell id="fgjjbp0e9OJu9rGo0koz-21" value="" style="endArrow=none;html=1;rounded=0;entryX=0.5;entryY=1;entryDx=0;entryDy=0;exitX=0.202;exitY=0.983;exitDx=0;exitDy=0;spacing=7;exitPerimeter=0;" edge="1" parent="1" source="fgjjbp0e9OJu9rGo0koz-18" target="fgjjbp0e9OJu9rGo0koz-19">
          <mxGeometry width="50" height="50" relative="1" as="geometry">
            <mxPoint x="687" y="383" as="sourcePoint" />
            <mxPoint x="937" y="440" as="targetPoint" />
            <Array as="points">
              <mxPoint x="677" y="500" />
            </Array>
          </mxGeometry>
        </mxCell>
        <mxCell id="fgjjbp0e9OJu9rGo0koz-22" value="Image" style="ellipse;whiteSpace=wrap;html=1;spacing=7;" vertex="1" parent="1">
          <mxGeometry x="827" y="400" width="80" height="60" as="geometry" />
        </mxCell>
        <mxCell id="fgjjbp0e9OJu9rGo0koz-23" value="" style="endArrow=none;html=1;rounded=0;entryX=0.5;entryY=0;entryDx=0;entryDy=0;exitX=0;exitY=0.5;exitDx=0;exitDy=0;spacing=7;" edge="1" parent="1" source="fgjjbp0e9OJu9rGo0koz-22" target="fgjjbp0e9OJu9rGo0koz-15">
          <mxGeometry width="50" height="50" relative="1" as="geometry">
            <mxPoint x="742" y="373" as="sourcePoint" />
            <mxPoint x="617" y="380" as="targetPoint" />
            <Array as="points" />
          </mxGeometry>
        </mxCell>
        <mxCell id="fgjjbp0e9OJu9rGo0koz-25" value="Create" style="rhombus;whiteSpace=wrap;html=1;" vertex="1" parent="1">
          <mxGeometry x="360" y="500" width="120" height="100" as="geometry" />
        </mxCell>
        <mxCell id="fgjjbp0e9OJu9rGo0koz-28" value="" style="endArrow=none;html=1;rounded=0;entryX=0;entryY=0.5;entryDx=0;entryDy=0;exitX=1;exitY=0.5;exitDx=0;exitDy=0;" edge="1" parent="1" source="fgjjbp0e9OJu9rGo0koz-25" target="fgjjbp0e9OJu9rGo0koz-15">
          <mxGeometry width="50" height="50" relative="1" as="geometry">
            <mxPoint x="370" y="580" as="sourcePoint" />
            <mxPoint x="420" y="530" as="targetPoint" />
          </mxGeometry>
        </mxCell>
        <mxCell id="fgjjbp0e9OJu9rGo0koz-29" value="" style="endArrow=none;html=1;rounded=0;entryX=0;entryY=0.5;entryDx=0;entryDy=0;exitX=1;exitY=0.5;exitDx=0;exitDy=0;" edge="1" parent="1" source="fgjjbp0e9OJu9rGo0koz-1" target="fgjjbp0e9OJu9rGo0koz-25">
          <mxGeometry width="50" height="50" relative="1" as="geometry">
            <mxPoint x="370" y="580" as="sourcePoint" />
            <mxPoint x="420" y="530" as="targetPoint" />
          </mxGeometry>
        </mxCell>
        <mxCell id="fgjjbp0e9OJu9rGo0koz-30" value="Comment" style="rounded=0;whiteSpace=wrap;html=1;spacing=7;" vertex="1" parent="1">
          <mxGeometry x="364" y="710" width="100" height="80" as="geometry" />
        </mxCell>
        <mxCell id="fgjjbp0e9OJu9rGo0koz-31" value="user_id" style="ellipse;whiteSpace=wrap;html=1;spacing=7;" vertex="1" parent="1">
          <mxGeometry x="470" y="910" width="100" height="70" as="geometry" />
        </mxCell>
        <mxCell id="fgjjbp0e9OJu9rGo0koz-32" value="content" style="ellipse;whiteSpace=wrap;html=1;spacing=7;" vertex="1" parent="1">
          <mxGeometry x="330" y="940" width="80" height="60" as="geometry" />
        </mxCell>
        <mxCell id="fgjjbp0e9OJu9rGo0koz-34" value="comment_id" style="ellipse;whiteSpace=wrap;html=1;spacing=7;" vertex="1" parent="1">
          <mxGeometry x="180" y="910" width="110" height="70" as="geometry" />
        </mxCell>
        <mxCell id="fgjjbp0e9OJu9rGo0koz-35" value="" style="endArrow=none;html=1;rounded=0;exitX=0.5;exitY=0;exitDx=0;exitDy=0;spacing=7;" edge="1" parent="1" source="fgjjbp0e9OJu9rGo0koz-32" target="fgjjbp0e9OJu9rGo0koz-31">
          <mxGeometry width="50" height="50" relative="1" as="geometry">
            <mxPoint x="620" y="675" as="sourcePoint" />
            <mxPoint x="670" y="625" as="targetPoint" />
            <Array as="points">
              <mxPoint x="410" y="790" />
            </Array>
          </mxGeometry>
        </mxCell>
        <mxCell id="fgjjbp0e9OJu9rGo0koz-37" value="post_id" style="ellipse;whiteSpace=wrap;html=1;spacing=7;" vertex="1" parent="1">
          <mxGeometry x="590" y="850" width="80" height="60" as="geometry" />
        </mxCell>
        <mxCell id="fgjjbp0e9OJu9rGo0koz-38" value="" style="endArrow=none;html=1;rounded=0;spacing=7;exitX=0.022;exitY=0.367;exitDx=0;exitDy=0;exitPerimeter=0;" edge="1" parent="1" source="fgjjbp0e9OJu9rGo0koz-37">
          <mxGeometry width="50" height="50" relative="1" as="geometry">
            <mxPoint x="630" y="830" as="sourcePoint" />
            <mxPoint x="410" y="790" as="targetPoint" />
            <Array as="points" />
          </mxGeometry>
        </mxCell>
        <mxCell id="fgjjbp0e9OJu9rGo0koz-39" value="" style="endArrow=none;html=1;rounded=0;exitX=0.5;exitY=0;exitDx=0;exitDy=0;" edge="1" parent="1" source="fgjjbp0e9OJu9rGo0koz-34">
          <mxGeometry width="50" height="50" relative="1" as="geometry">
            <mxPoint x="370" y="870" as="sourcePoint" />
            <mxPoint x="410" y="790" as="targetPoint" />
          </mxGeometry>
        </mxCell>
        <mxCell id="fgjjbp0e9OJu9rGo0koz-40" value="Do" style="rhombus;whiteSpace=wrap;html=1;" vertex="1" parent="1">
          <mxGeometry x="80" y="690" width="110" height="90" as="geometry" />
        </mxCell>
        <mxCell id="fgjjbp0e9OJu9rGo0koz-41" value="" style="endArrow=none;html=1;rounded=0;entryX=0.5;entryY=1;entryDx=0;entryDy=0;exitX=0.5;exitY=0;exitDx=0;exitDy=0;" edge="1" parent="1" source="fgjjbp0e9OJu9rGo0koz-40" target="fgjjbp0e9OJu9rGo0koz-1">
          <mxGeometry width="50" height="50" relative="1" as="geometry">
            <mxPoint x="370" y="770" as="sourcePoint" />
            <mxPoint x="420" y="720" as="targetPoint" />
          </mxGeometry>
        </mxCell>
        <mxCell id="fgjjbp0e9OJu9rGo0koz-42" value="" style="endArrow=none;html=1;rounded=0;entryX=1;entryY=0.5;entryDx=0;entryDy=0;" edge="1" parent="1" source="fgjjbp0e9OJu9rGo0koz-30" target="fgjjbp0e9OJu9rGo0koz-40">
          <mxGeometry width="50" height="50" relative="1" as="geometry">
            <mxPoint x="360" y="750" as="sourcePoint" />
            <mxPoint x="420" y="720" as="targetPoint" />
          </mxGeometry>
        </mxCell>
        <mxCell id="fgjjbp0e9OJu9rGo0koz-43" value="Have" style="rhombus;whiteSpace=wrap;html=1;" vertex="1" parent="1">
          <mxGeometry x="642" y="690" width="80" height="80" as="geometry" />
        </mxCell>
        <mxCell id="fgjjbp0e9OJu9rGo0koz-44" value="" style="endArrow=none;html=1;rounded=0;entryX=1;entryY=0.5;entryDx=0;entryDy=0;exitX=-0.007;exitY=0.59;exitDx=0;exitDy=0;exitPerimeter=0;" edge="1" parent="1" source="fgjjbp0e9OJu9rGo0koz-43" target="fgjjbp0e9OJu9rGo0koz-30">
          <mxGeometry width="50" height="50" relative="1" as="geometry">
            <mxPoint x="370" y="770" as="sourcePoint" />
            <mxPoint x="420" y="720" as="targetPoint" />
          </mxGeometry>
        </mxCell>
        <mxCell id="fgjjbp0e9OJu9rGo0koz-45" value="" style="endArrow=none;html=1;rounded=0;entryX=0.5;entryY=1;entryDx=0;entryDy=0;exitX=0.5;exitY=0;exitDx=0;exitDy=0;" edge="1" parent="1" source="fgjjbp0e9OJu9rGo0koz-43" target="fgjjbp0e9OJu9rGo0koz-15">
          <mxGeometry width="50" height="50" relative="1" as="geometry">
            <mxPoint x="370" y="770" as="sourcePoint" />
            <mxPoint x="420" y="720" as="targetPoint" />
          </mxGeometry>
        </mxCell>
        <mxCell id="fgjjbp0e9OJu9rGo0koz-46" value="Category&amp;nbsp;" style="whiteSpace=wrap;html=1;aspect=fixed;" vertex="1" parent="1">
          <mxGeometry x="480" y="-50" width="90" height="90" as="geometry" />
        </mxCell>
        <mxCell id="fgjjbp0e9OJu9rGo0koz-48" value="title" style="ellipse;whiteSpace=wrap;html=1;" vertex="1" parent="1">
          <mxGeometry x="440" y="-310" width="120" height="80" as="geometry" />
        </mxCell>
        <mxCell id="fgjjbp0e9OJu9rGo0koz-49" value="categorie_id" style="ellipse;whiteSpace=wrap;html=1;" vertex="1" parent="1">
          <mxGeometry x="613.5" y="-310" width="120" height="80" as="geometry" />
        </mxCell>
        <mxCell id="fgjjbp0e9OJu9rGo0koz-50" value="Content" style="rhombus;whiteSpace=wrap;html=1;" vertex="1" parent="1">
          <mxGeometry x="613.5" y="130" width="80" height="80" as="geometry" />
        </mxCell>
        <mxCell id="fgjjbp0e9OJu9rGo0koz-51" value="" style="endArrow=none;html=1;rounded=0;entryX=0.5;entryY=0;entryDx=0;entryDy=0;exitX=0.5;exitY=1;exitDx=0;exitDy=0;" edge="1" parent="1" source="fgjjbp0e9OJu9rGo0koz-49" target="fgjjbp0e9OJu9rGo0koz-46">
          <mxGeometry width="50" height="50" relative="1" as="geometry">
            <mxPoint x="370" y="-130" as="sourcePoint" />
            <mxPoint x="420" y="-180" as="targetPoint" />
          </mxGeometry>
        </mxCell>
        <mxCell id="fgjjbp0e9OJu9rGo0koz-52" value="" style="endArrow=none;html=1;rounded=0;entryX=0.5;entryY=1;entryDx=0;entryDy=0;exitX=0.5;exitY=0;exitDx=0;exitDy=0;" edge="1" parent="1" source="fgjjbp0e9OJu9rGo0koz-46" target="fgjjbp0e9OJu9rGo0koz-48">
          <mxGeometry width="50" height="50" relative="1" as="geometry">
            <mxPoint x="600" y="-130" as="sourcePoint" />
            <mxPoint x="420" y="-180" as="targetPoint" />
          </mxGeometry>
        </mxCell>
        <mxCell id="fgjjbp0e9OJu9rGo0koz-53" value="" style="endArrow=none;html=1;rounded=0;entryX=0.5;entryY=1;entryDx=0;entryDy=0;exitX=0.5;exitY=0;exitDx=0;exitDy=0;" edge="1" parent="1" source="fgjjbp0e9OJu9rGo0koz-50" target="fgjjbp0e9OJu9rGo0koz-46">
          <mxGeometry width="50" height="50" relative="1" as="geometry">
            <mxPoint x="370" y="-30" as="sourcePoint" />
            <mxPoint x="420" y="-80" as="targetPoint" />
          </mxGeometry>
        </mxCell>
        <mxCell id="fgjjbp0e9OJu9rGo0koz-54" value="" style="endArrow=none;html=1;rounded=0;entryX=0.5;entryY=1;entryDx=0;entryDy=0;" edge="1" parent="1" source="fgjjbp0e9OJu9rGo0koz-15" target="fgjjbp0e9OJu9rGo0koz-50">
          <mxGeometry width="50" height="50" relative="1" as="geometry">
            <mxPoint x="370" y="170" as="sourcePoint" />
            <mxPoint x="420" y="120" as="targetPoint" />
          </mxGeometry>
        </mxCell>
      </root>
    </mxGraphModel>
  </diagram>
</mxfile>
